<svg xmlns="http://www.w3.org/2000/svg" xmlns:xlink="http://www.w3.org/1999/xlink" version="1.1" width="1000" height="1000" viewBox="0 0 1000 1000" xml:space="preserve">
<desc>Created with Fabric.js 3.5.0</desc>
<defs>
</defs>
<rect x="0" y="0" width="100%" height="100%" fill="none"/>
<g transform="matrix(-14.2045 0 0 -14.2045 500.0015 500.0015)" id="122624">
<g style="" vector-effect="non-scaling-stroke">
		<g transform="matrix(0.125 0 0 0.125 11.0361 -16.622)" id="SVGRepo_iconCarrier">
<path style="stroke: none; stroke-width: 1; stroke-dasharray: none; stroke-linecap: butt; stroke-dashoffset: 0; stroke-linejoin: miter; stroke-miterlimit: 4; is-custom-font: none; font-file-url: none; fill: rgb(173,68,70); fill-rule: nonzero; opacity: 1;" transform=" translate(-344.2882, -123.024)" d="M 281.416 223.103 c -3.36 -8.433 0.754 -17.993 9.187 -21.353 l 84.855 -33.8 V 29.024 c 0 -9.078 7.359 -16.437 16.437 -16.437 s 16.437 7.36 16.437 16.437 v 150.07 c 0 6.731 -4.103 12.781 -10.354 15.27 l -95.209 37.925 C 294.337 235.649 284.776 231.539 281.416 223.103 z" stroke-linecap="round"/>
</g>
		<g transform="matrix(0.125 0 0 0.125 9.6001 16.4433)" id="SVGRepo_iconCarrier">
<path style="stroke: none; stroke-width: 1; stroke-dasharray: none; stroke-linecap: butt; stroke-dashoffset: 0; stroke-linejoin: miter; stroke-miterlimit: 4; is-custom-font: none; font-file-url: none; fill: rgb(173,68,70); fill-rule: nonzero; opacity: 1;" transform=" translate(-332.8012, -387.5464)" d="M 391.894 502.56 c -9.078 0 -16.437 -7.36 -16.437 -16.437 V 347.198 l -107.828 -42.953 c -8.433 -3.359 -12.547 -12.92 -9.187 -21.353 c 3.359 -8.435 12.921 -12.548 21.353 -9.187 l 118.183 47.077 c 6.253 2.49 10.354 8.54 10.354 15.27 v 150.07 C 408.331 495.2 400.973 502.56 391.894 502.56 z" stroke-linecap="round"/>
</g>
		<g transform="matrix(0.125 0 0 0.125 17.4063 0.6617)" id="SVGRepo_iconCarrier">
<path style="stroke: none; stroke-width: 1; stroke-dasharray: none; stroke-linecap: butt; stroke-dashoffset: 0; stroke-linejoin: miter; stroke-miterlimit: 4; is-custom-font: none; font-file-url: none; fill: rgb(173,68,70); fill-rule: nonzero; opacity: 1;" transform=" translate(-395.25, -261.294)" d="M 495.563 277.731 H 294.937 c -9.078 0 -16.437 -7.359 -16.437 -16.437 s 7.36 -16.437 16.437 -16.437 h 200.626 c 9.078 0 16.437 7.36 16.437 16.437 S 504.642 277.731 495.563 277.731 z" stroke-linecap="round"/>
</g>
		<g transform="matrix(0.125 0 0 0.125 -11.0359 -16.6219)" id="SVGRepo_iconCarrier">
<path style="stroke: none; stroke-width: 1; stroke-dasharray: none; stroke-linecap: butt; stroke-dashoffset: 0; stroke-linejoin: miter; stroke-miterlimit: 4; is-custom-font: none; font-file-url: none; fill: rgb(199,76,78); fill-rule: nonzero; opacity: 1;" transform=" translate(-167.7128, -123.0246)" d="M 209.232 232.291 l -95.209 -37.925 c -6.253 -2.49 -10.354 -8.54 -10.354 -15.27 V 29.024 c 0 -9.078 7.36 -16.437 16.437 -16.437 s 16.437 7.36 16.437 16.437 v 138.924 l 84.855 33.801 c 8.433 3.359 12.547 12.92 9.187 21.353 C 227.223 231.541 217.659 235.649 209.232 232.291 z" stroke-linecap="round"/>
</g>
		<g transform="matrix(0.125 0 0 0.125 -9.6001 16.4435)" id="SVGRepo_iconCarrier">
<path style="stroke: none; stroke-width: 1; stroke-dasharray: none; stroke-linecap: butt; stroke-dashoffset: 0; stroke-linejoin: miter; stroke-miterlimit: 4; is-custom-font: none; font-file-url: none; fill: rgb(199,76,78); fill-rule: nonzero; opacity: 1;" transform=" translate(-179.1998, -387.5474)" d="M 120.106 502.56 c -9.078 0 -16.437 -7.36 -16.437 -16.437 v -150.07 c 0 -6.731 4.103 -12.781 10.354 -15.27 l 118.183 -47.077 c 8.432 -3.359 17.994 0.754 21.353 9.187 c 3.36 8.433 -0.754 17.993 -9.187 21.353 l -107.828 42.953 v 138.924 C 136.543 495.2 129.184 502.56 120.106 502.56 z" stroke-linecap="round"/>
</g>
		<g transform="matrix(0.125 0 0 0.125 -17.4063 0.6617)" id="SVGRepo_iconCarrier">
<path style="stroke: none; stroke-width: 1; stroke-dasharray: none; stroke-linecap: butt; stroke-dashoffset: 0; stroke-linejoin: miter; stroke-miterlimit: 4; is-custom-font: none; font-file-url: none; fill: rgb(199,76,78); fill-rule: nonzero; opacity: 1;" transform=" translate(-116.75, -261.294)" d="M 217.063 277.731 H 16.437 C 7.36 277.731 0 270.371 0 261.294 s 7.36 -16.437 16.437 -16.437 h 200.626 c 9.078 0 16.437 7.36 16.437 16.437 S 226.142 277.731 217.063 277.731 z" stroke-linecap="round"/>
</g>
		<g transform="matrix(0.125 0 0 0.125 0.0001 -16.4897)" id="SVGRepo_iconCarrier">
<path style="stroke: none; stroke-width: 1; stroke-dasharray: none; stroke-linecap: butt; stroke-dashoffset: 0; stroke-linejoin: miter; stroke-miterlimit: 4; is-custom-font: none; font-file-url: none; fill: rgb(252,91,93); fill-rule: nonzero; opacity: 1;" transform=" translate(-256.001, -124.082)" d="M 256.001 195.078 c -40.201 0 -70.996 -15.297 -70.996 -54.936 c 0 -37.49 29.807 -87.056 70.996 -87.056 c 41.09 0 70.996 49.456 70.996 87.056 C 326.995 160.659 317.772 195.078 256.001 195.078 z" stroke-linecap="round"/>
</g>
		<g transform="matrix(0.125 0 0 0.125 4.4373 -16.4897)" id="SVGRepo_iconCarrier">
<path style="stroke: none; stroke-width: 1; stroke-dasharray: none; stroke-linecap: butt; stroke-dashoffset: 0; stroke-linejoin: miter; stroke-miterlimit: 4; is-custom-font: none; font-file-url: none; fill: rgb(222,81,83); fill-rule: nonzero; opacity: 1;" transform=" translate(-291.499, -124.082)" d="M 256.001 53.086 v 141.992 c 61.772 0 70.996 -34.419 70.996 -54.936 C 326.995 102.542 297.089 53.086 256.001 53.086 z" stroke-linecap="round"/>
</g>
		<g transform="matrix(0.125 0 0 0.125 0.0001 -26.0374)" id="SVGRepo_iconCarrier">
<path style="stroke: none; stroke-width: 1; stroke-dasharray: none; stroke-linecap: butt; stroke-dashoffset: 0; stroke-linejoin: miter; stroke-miterlimit: 4; is-custom-font: none; font-file-url: none; fill: rgb(222,81,83); fill-rule: nonzero; opacity: 1;" transform=" translate(-256.001, -47.7009)" d="M 245.241 81.949 l -50.397 -43.645 c -6.862 -5.943 -7.607 -16.323 -1.665 -23.186 c 5.944 -6.863 16.323 -7.607 23.186 -1.665 l 39.636 34.325 l 39.636 -34.325 c 6.863 -5.943 17.244 -5.197 23.186 1.665 s 5.197 17.243 -1.665 23.186 l -50.397 43.645 C 260.587 87.297 251.418 87.299 245.241 81.949 z" stroke-linecap="round"/>
</g>
		<g transform="matrix(0.125 0 0 0.125 0.0002 -2.4563)" id="SVGRepo_iconCarrier">
<path style="stroke: none; stroke-width: 1; stroke-dasharray: none; stroke-linecap: butt; stroke-dashoffset: 0; stroke-linejoin: miter; stroke-miterlimit: 4; is-custom-font: none; font-file-url: none; fill: rgb(222,81,83); fill-rule: nonzero; opacity: 1;" transform=" translate(-256.001, -236.349)" d="M 256.001 310.495 c -31.214 0 -59.607 -30.64 -59.607 -74.146 c 0 -42.554 27.581 -74.146 59.607 -74.146 c 31.214 0 59.607 30.64 59.607 74.146 C 315.606 278.903 288.026 310.495 256.001 310.495 z" stroke-linecap="round"/>
</g>
		<g transform="matrix(0.125 0 0 0.125 3.7255 -2.4564)" id="SVGRepo_iconCarrier">
<path style="stroke: none; stroke-width: 1; stroke-dasharray: none; stroke-linecap: butt; stroke-dashoffset: 0; stroke-linejoin: miter; stroke-miterlimit: 4; is-custom-font: none; font-file-url: none; fill: rgb(199,76,78); fill-rule: nonzero; opacity: 1;" transform=" translate(-285.8045, -236.349)" d="M 256.001 162.203 v 148.292 c 32.025 0 59.607 -31.591 59.607 -74.146 C 315.606 192.843 287.215 162.203 256.001 162.203 z" stroke-linecap="round"/>
</g>
		<g transform="matrix(0.125 0 0 0.125 0.0001 14.1888)" id="SVGRepo_iconCarrier">
<path style="stroke: none; stroke-width: 1; stroke-dasharray: none; stroke-linecap: butt; stroke-dashoffset: 0; stroke-linejoin: miter; stroke-miterlimit: 4; is-custom-font: none; font-file-url: none; fill: rgb(252,91,93); fill-rule: nonzero; opacity: 1;" transform=" translate(-256.001, -369.5105)" d="M 256.001 461.4 c -41.595 0 -72.88 -42.25 -72.88 -91.89 c 0 -49.635 31.285 -91.889 72.88 -91.889 c 41.609 0 72.88 42.27 72.88 91.889 C 328.88 419.156 297.589 461.4 256.001 461.4 z" stroke-linecap="round"/>
</g>
		<g transform="matrix(0.125 0 0 0.125 4.1773 -26.0374)" id="SVGRepo_iconCarrier">
<path style="stroke: none; stroke-width: 1; stroke-dasharray: none; stroke-linecap: butt; stroke-dashoffset: 0; stroke-linejoin: miter; stroke-miterlimit: 4; is-custom-font: none; font-file-url: none; fill: rgb(199,76,78); fill-rule: nonzero; opacity: 1;" transform=" translate(-289.4183, -47.7008)" d="M 318.824 15.118 c -5.943 -6.862 -16.323 -7.607 -23.186 -1.665 l -39.636 34.325 l -0.001 -0.001 v 38.183 c 3.836 0 7.674 -1.337 10.762 -4.012 l 50.397 -43.645 C 324.021 32.361 324.766 21.98 318.824 15.118 z" stroke-linecap="round"/>
</g>
		<g transform="matrix(0.125 0 0 0.125 4.5551 14.1887)" id="SVGRepo_iconCarrier">
<path style="stroke: none; stroke-width: 1; stroke-dasharray: none; stroke-linecap: butt; stroke-dashoffset: 0; stroke-linejoin: miter; stroke-miterlimit: 4; is-custom-font: none; font-file-url: none; fill: rgb(222,81,83); fill-rule: nonzero; opacity: 1;" transform=" translate(-292.441, -369.5095)" d="M 256.001 277.62 v 183.779 c 41.588 0 72.88 -42.244 72.88 -91.89 C 328.88 319.891 297.61 277.62 256.001 277.62 z" stroke-linecap="round"/>
</g>
</g>
</g>
</svg>